<svg
  width="100"
  height="100"
  viewBox="0 0 100 100"
  fill="none"
  xmlns="http://www.w3.org/2000/svg"
>
  <defs>
    <!-- Sky-Blue / Cyan to Amber / Gold vertical gradient for the soundbars -->
    <linearGradient id="blueYellowGrad" x1="0%" y1="0%" x2="0%" y2="100%">
      <stop offset="0%" stopColor="#00F0FF" />
      <stop offset="35%" stopColor="#00A2FF" />
      <stop offset="100%" stopColor="#FFA012" />
    </linearGradient>

    <!-- Neon blue gradient for the letter D and left M leg -->
    <linearGradient id="blueGrad" x1="0%" y1="0%" x2="0%" y2="100%">
      <stop offset="0%" stopColor="#00F0FF" />
      <stop offset="100%" stopColor="#0055FF" />
    </linearGradient>

    <!-- Golden yellow gradient for the right M leg -->
    <linearGradient id="goldGrad" x1="0%" y1="0%" x2="0%" y2="100%">
      <stop offset="0%" stopColor="#FFEB3B" />
      <stop offset="100%" stopColor="#FF8A00" />
    </linearGradient>

    <!-- Glow filters to give the media-tech look -->
    <filter id="logoGlow" x="-10%" y="-10%" width="120%" height="120%">
      <feGaussianBlur stdDeviation="1.5" result="blur" />
      <feComposite in="SourceGraphic" in2="blur" operator="over" />
    </filter>
  </defs>

  <!-- Dark background circle for favicon context -->
  <circle cx="50" cy="50" r="48" fill="#040714" stroke="#00F0FF" strokeWidth="1.5" />

  <g filter="url(#logoGlow)" transform="translate(0, 10)">
    <!-- Left Side soundwave/EQ equalizer bars -->
    <rect x="8" y="24" width="4.2" height="32" rx="2.1" fill="url(#blueYellowGrad)" />
    <rect x="15.5" y="14" width="4.2" height="52" rx="2.1" fill="url(#blueYellowGrad)" />
    <rect x="23" y="4" width="4.2" height="72" rx="2.1" fill="url(#blueYellowGrad)" />
    <rect x="30.5" y="18" width="4.2" height="44" rx="2.1" fill="url(#blueYellowGrad)" />

    <!-- Big Blue "D" Arc -->
    <path
      d="M 46 22 H 54 C 66.5 22, 77 30, 77 40 C 77 50, 66.5 58, 54 58 H 46"
      fill="none"
      stroke="url(#blueGrad)"
      strokeWidth="4.8"
      strokeLinecap="round"
    />

    <!-- Futuristic Stylized "M" legs -->
    <!-- Left blue leg of M -->
    <path
      d="M 50 58 V 34 L 60 46"
      fill="none"
      stroke="url(#blueGrad)"
      strokeWidth="4"
      strokeLinecap="round"
      strokeLinejoin="round"
    />

    <!-- Right golden leg of M -->
    <path
      d="M 60 46 L 70 34 V 58"
      fill="none"
      stroke="url(#goldGrad)"
      strokeWidth="4"
      strokeLinecap="round"
      strokeLinejoin="round"
    />

    <!-- Central interactive glowing vertex circle tag -->
    <circle cx="60" cy="46" r="3.2" fill="#FFEB3B" stroke="#040714" strokeWidth="1.2" />
  </g>
</svg>
